<?xml version="1.0" encoding="UTF-8" standalone="no"?>
<!-- Created with Inkscape (http://www.inkscape.org/) -->

<svg
   version="1.0"
   width="400"
   height="602.88562"
   id="svg2"
   sodipodi:docname="resilience.svg"
   inkscape:version="1.3.2 (091e20e, 2023-11-25)"
   viewBox="0 0 266.66667 401.92375"
   xmlns:inkscape="http://www.inkscape.org/namespaces/inkscape"
   xmlns:sodipodi="http://sodipodi.sourceforge.net/DTD/sodipodi-0.dtd"
   xmlns="http://www.w3.org/2000/svg"
   xmlns:svg="http://www.w3.org/2000/svg"
   xmlns:ns1="http://www.iki.fi/pav/software/textext/">
  <sodipodi:namedview
     id="namedview1"
     pagecolor="#ffffff"
     bordercolor="#000000"
     borderopacity="0.25"
     inkscape:showpageshadow="2"
     inkscape:pageopacity="0.0"
     inkscape:pagecheckerboard="0"
     inkscape:deskcolor="#d1d1d1"
     inkscape:zoom="0.70198575"
     inkscape:cx="261.40132"
     inkscape:cy="275.64662"
     inkscape:window-width="1392"
     inkscape:window-height="1212"
     inkscape:window-x="1138"
     inkscape:window-y="25"
     inkscape:window-maximized="0"
     inkscape:current-layer="layer1" />
  <defs
     id="defs4">
    <marker
       style="overflow:visible"
       id="marker3"
       refX="0"
       refY="0"
       orient="auto-start-reverse"
       inkscape:stockid="Triangle arrow"
       markerWidth="1"
       markerHeight="1"
       viewBox="0 0 1 1"
       inkscape:isstock="true"
       inkscape:collect="always"
       preserveAspectRatio="xMidYMid">
      <path
         transform="scale(0.5)"
         style="fill:context-stroke;fill-rule:evenodd;stroke:context-stroke;stroke-width:1pt"
         d="M 5.77,0 -2.88,5 V -5 Z"
         id="path3" />
    </marker>
    <marker
       style="overflow:visible"
       id="Triangle"
       refX="0"
       refY="0"
       orient="auto-start-reverse"
       inkscape:stockid="Triangle arrow"
       markerWidth="1"
       markerHeight="1"
       viewBox="0 0 1 1"
       inkscape:isstock="true"
       inkscape:collect="always"
       preserveAspectRatio="xMidYMid">
      <path
         transform="scale(0.5)"
         style="fill:context-stroke;fill-rule:evenodd;stroke:context-stroke;stroke-width:1pt"
         d="M 5.77,0 -2.88,5 V -5 Z"
         id="path135" />
    </marker>
    <marker
       refX="0"
       refY="0"
       orient="auto"
       style="overflow:visible"
       id="Arrow2Mend">
      <path
         d="M 8.7185878,4.0337352 -2.2072895,0.01601326 8.7185884,-4.0017078 c -1.7454984,2.3720609 -1.7354408,5.6174519 -6e-7,8.035443 z"
         transform="scale(-0.6)"
         style="font-size:12px;fill-rule:evenodd;stroke-width:0.625;stroke-linejoin:round"
         id="path2906" />
    </marker>
    <marker
       refX="0"
       refY="0"
       orient="auto"
       style="overflow:visible"
       id="Arrow2Mstart">
      <path
         d="M 8.7185878,4.0337352 -2.2072895,0.01601326 8.7185884,-4.0017078 c -1.7454984,2.3720609 -1.7354408,5.6174519 -6e-7,8.035443 z"
         transform="scale(0.6)"
         style="font-size:12px;fill-rule:evenodd;stroke-width:0.625;stroke-linejoin:round"
         id="path2909" />
    </marker>
    <marker
       refX="0"
       refY="0"
       orient="auto"
       style="overflow:visible"
       id="Arrow2Lstart">
      <path
         d="M 8.7185878,4.0337352 -2.2072895,0.01601326 8.7185884,-4.0017078 c -1.7454984,2.3720609 -1.7354408,5.6174519 -6e-7,8.035443 z"
         transform="matrix(1.1,0,0,1.1,1.1,0)"
         style="font-size:12px;fill-rule:evenodd;stroke-width:0.625;stroke-linejoin:round"
         id="path2915" />
    </marker>
    <marker
       refX="0"
       refY="0"
       orient="auto"
       style="overflow:visible"
       id="Arrow2Lend">
      <path
         d="M 8.7185878,4.0337352 -2.2072895,0.01601326 8.7185884,-4.0017078 c -1.7454984,2.3720609 -1.7354408,5.6174519 -6e-7,8.035443 z"
         transform="matrix(-1.1,0,0,-1.1,-1.1,0)"
         style="font-size:12px;fill-rule:evenodd;stroke-width:0.625;stroke-linejoin:round"
         id="path2912" />
    </marker>
    <marker
       refX="0"
       refY="0"
       orient="auto"
       style="overflow:visible"
       id="Arrow1Lend">
      <path
         d="M 0,0 5,-5 -12.5,0 5,5 Z"
         transform="matrix(-0.8,0,0,-0.8,-10,0)"
         style="fill-rule:evenodd;stroke:#000000;stroke-width:1pt;marker-start:none"
         id="path2930" />
    </marker>
    <marker
       refX="0"
       refY="0"
       orient="auto"
       style="overflow:visible"
       id="Arrow1Lstart">
      <path
         d="M 0,0 5,-5 -12.5,0 5,5 Z"
         transform="matrix(0.8,0,0,0.8,10,0)"
         style="fill-rule:evenodd;stroke:#000000;stroke-width:1pt;marker-start:none"
         id="path2933" />
    </marker>
    <marker
       refX="0"
       refY="0"
       orient="auto"
       style="overflow:visible"
       id="Arrow1Mend">
      <path
         d="M 0,0 5,-5 -12.5,0 5,5 Z"
         transform="matrix(-0.4,0,0,-0.4,-4,0)"
         style="fill-rule:evenodd;stroke:#000000;stroke-width:1pt;marker-start:none"
         id="path2924" />
    </marker>
    <marker
       refX="0"
       refY="0"
       orient="auto"
       style="overflow:visible"
       id="Arrow1Mstart">
      <path
         d="M 0,0 5,-5 -12.5,0 5,5 Z"
         transform="matrix(0.4,0,0,0.4,4,0)"
         style="fill-rule:evenodd;stroke:#000000;stroke-width:1pt;marker-start:none"
         id="path2927" />
    </marker>
  </defs>
  <g
     transform="translate(-94.3869, -79.9844)"
     id="layer1">
    <path
       d="M 123.02732,107.4665 V 431.09064 H 344.74435"
       style="fill:none;fill-rule:evenodd;stroke:#000000;stroke-width:2.92718;stroke-linecap:butt;stroke-linejoin:miter;stroke-miterlimit:4;stroke-dasharray:none;stroke-opacity:1;marker-mid:none"
       id="path1872"
       sodipodi:nodetypes="ccc" />
    <text
       x="150.88402"
       y="467.18286"
       style="font-style:normal;font-variant:normal;font-weight:normal;font-stretch:normal;font-size:17.7778px;font-family:NewComputerModern10;-inkscape-font-specification:'NewComputerModern10, Normal';font-variant-ligatures:normal;font-variant-caps:normal;font-variant-numeric:normal;font-variant-east-asian:normal;fill:#000000;fill-opacity:1;stroke:none;stroke-width:1.65199px;stroke-linecap:butt;stroke-linejoin:miter;stroke-opacity:1"
       id="text2946-3"
       xml:space="preserve"
       transform="scale(1.0366483,0.96464732)"><tspan
         sodipodi:role="line"
         id="tspan4"
         x="150.88402"
         y="467.18286"
         style="font-style:normal;font-variant:normal;font-weight:normal;font-stretch:normal;font-size:17.7778px;font-family:NewComputerModern10;-inkscape-font-specification:'NewComputerModern10, Normal';font-variant-ligatures:normal;font-variant-caps:normal;font-variant-numeric:normal;font-variant-east-asian:normal;stroke-width:1.65199px">0.002</tspan></text>
    <path
       d="m 123.40103,429.14383 99.48122,-195.57548 c 0,0 23.08752,-53.54147 114.58438,-94.06976"
       style="fill:none;fill-opacity:1;fill-rule:evenodd;stroke:#5400c2;stroke-width:2.58058;stroke-linecap:butt;stroke-linejoin:miter;stroke-miterlimit:4;stroke-dasharray:none;stroke-opacity:1"
       id="path2958"
       sodipodi:nodetypes="ccc" />
    <path
       d="M 267.33144,180.81973 138.59018,431.99185"
       style="fill:none;fill-rule:evenodd;stroke:#000000;stroke-width:1.6;stroke-linecap:butt;stroke-linejoin:miter;stroke-miterlimit:4;stroke-dasharray:6.40001, 1.6;stroke-dashoffset:0;stroke-opacity:1"
       id="path2960"
       inkscape:label="2% strain offset" />
    <path
       style="fill:none;stroke:#000000;stroke-width:1.6;stroke-dasharray:6.40001, 1.6;stroke-dashoffset:0;stroke-opacity:1"
       d="m 124.0751,183.93788 c 45.48331,0 90.96659,0 136.44988,0"
       id="path1"
       inkscape:label="yield stress line" />
    <path
       style="fill:none;stroke:#000000;stroke-width:1.6;stroke-dasharray:6.40001, 1.6;stroke-dashoffset:0;stroke-opacity:1"
       d="m 265.44906,187.82207 c 0,81.02437 0,162.04868 0,243.07302"
       id="path1-4"
       inkscape:label="yield strain line" />
    <path
       style="fill:none;stroke:#000000;stroke-width:1.32159;stroke-dasharray:none;stroke-dashoffset:0;stroke-opacity:1"
       d="m 123.0061,454.69936 c 0,-6.81195 0,-13.62396 0,-20.43593"
       id="path1-1"
       inkscape:label="yield stress" />
    <path
       style="fill:none;stroke:#000000;stroke-width:1.32159;stroke-dasharray:none;stroke-dashoffset:0;stroke-opacity:1"
       d="m 139.72741,454.25924 c 0,-6.81196 0,-13.62398 0,-20.43592"
       id="path1-1-4"
       inkscape:label="yield stress" />
    <path
       style="fill:none;stroke:#000000;stroke-width:1.32133;stroke-dasharray:none;stroke-dashoffset:0;stroke-opacity:1;marker-start:url(#Triangle)"
       d="m 117.11576,445.00803 c -3.39316,0 -6.78637,0 -10.17953,0"
       id="path1-1-4-4"
       inkscape:label="yield stress" />
    <path
       style="fill:none;stroke:#000000;stroke-width:1.32159;stroke-dasharray:none;stroke-dashoffset:0;stroke-opacity:1;marker-start:url(#marker3)"
       d="m 145.73263,445.00803 c 3.39316,0 6.78637,0 10.17953,0"
       id="path1-1-4-4-5"
       inkscape:label="yield stress" />
    <path
       d="m 269.64035,185.06974 a 5.13761,4.7807748 0 1 1 -10.27522,0 5.13761,4.7807748 0 1 1 10.27522,0 z"
       style="fill:#000000;fill-opacity:1;stroke:none;stroke-width:1.19104;stroke-linejoin:round;stroke-miterlimit:4;stroke-dasharray:4.76417, 1.19104;stroke-dashoffset:0;stroke-opacity:1"
       id="path5621" />
    <path
       d="m 233.50006,222.51182 a 5.13761,4.7807748 0 1 1 -10.27522,0 5.13761,4.7807748 0 1 1 10.27522,0 z"
       style="fill:#000000;fill-opacity:1;stroke:none;stroke-width:1.19104;stroke-linejoin:round;stroke-miterlimit:4;stroke-dasharray:4.76417, 1.19104;stroke-dashoffset:0;stroke-opacity:1"
       id="path5621-7" />
    <text
       x="130.1947"
       y="183.5067"
       style="font-style:normal;font-variant:normal;font-weight:normal;font-stretch:normal;font-size:17.6213px;font-family:NewComputerModern10;-inkscape-font-specification:'NewComputerModern10, Normal';font-variant-ligatures:normal;font-variant-caps:normal;font-variant-numeric:normal;font-variant-east-asian:normal;fill:#000000;fill-opacity:1;stroke:none;stroke-width:1.65199px;stroke-linecap:butt;stroke-linejoin:miter;stroke-opacity:1"
       id="text6534"
       xml:space="preserve"
       transform="scale(1.0366483,0.96464732)"><tspan
         x="130.1947"
         y="183.5067"
         id="tspan6536"
         style="font-style:normal;font-variant:normal;font-weight:normal;font-stretch:normal;font-size:17.6213px;font-family:NewComputerModern10;-inkscape-font-specification:'NewComputerModern10, Normal';font-variant-ligatures:normal;font-variant-caps:normal;font-variant-numeric:normal;font-variant-east-asian:normal;stroke-width:1.65199px">Yield stress</tspan></text>
    <text
       x="200.02165"
       y="233.22955"
       style="font-style:normal;font-variant:normal;font-weight:normal;font-stretch:normal;font-size:17.6213px;font-family:NewComputerModern10;-inkscape-font-specification:'NewComputerModern10, Normal';font-variant-ligatures:normal;font-variant-caps:normal;font-variant-numeric:normal;font-variant-east-asian:normal;fill:#000000;fill-opacity:1;stroke:none;stroke-width:1.65199px;stroke-linecap:butt;stroke-linejoin:miter;stroke-opacity:1"
       id="text6534-5"
       xml:space="preserve"
       transform="scale(1.0366483,0.96464732)"><tspan
         sodipodi:role="line"
         id="tspan3"
         x="200.02165"
         y="233.22955"
         style="stroke-width:1.65199px">P</tspan></text>
    <g
       transform="matrix(4.0809375,0,0,3.7974941,400.17587,398.58473)"
       ns1:version="1.10.2"
       ns1:texconverter="pdflatex"
       ns1:pdfconverter="inkscape"
       ns1:text="$\\sigma$"
       ns1:preamble="/Users/jzkelter/Library/Application Support/org.inkscape.Inkscape/config/inkscape/extensions/textext/default_packages.tex"
       ns1:scale="1.0"
       ns1:alignment="middle center"
       ns1:stroke-to-path="0"
       id="g26"
       ns1:jacobian_sqrt="1.33333"
       inkscape:label="y_label">
      <defs
         id="id-7982384a-64d6-4bce-b0b1-65a539c605b1">
        <g
           id="id-c748d3f7-e18a-4e62-8a35-48e35f7500b7">
          <g
             id="id-9f41198b-33f4-4f3d-844f-27f4196416e0">
            <path
               d="m 5.15625,-3.71875 c 0.140625,0 0.5,0 0.5,-0.34375 0,-0.234375 -0.21875,-0.234375 -0.390625,-0.234375 h -2.28125 c -1.5,0 -2.609375,1.640625 -2.609375,2.828125 0,0.875 0.59375,1.578125 1.5,1.578125 1.171875,0 2.5,-1.203125 2.5,-2.734375 0,-0.171875 0,-0.65625 -0.3125,-1.09375 z M 1.890625,-0.109375 C 1.390625,-0.109375 1,-0.46875 1,-1.1875 c 0,-0.296875 0.109375,-1.109375 0.46875,-1.703125 0.421875,-0.6875 1.015625,-0.828125 1.359375,-0.828125 0.828125,0 0.90625,0.65625 0.90625,0.96875 0,0.46875 -0.203125,1.28125 -0.53125,1.796875 -0.390625,0.578125 -0.9375,0.84375 -1.3125,0.84375 z m 0,0"
               id="id-e1c7c11e-f676-41aa-92c6-5041c5c10a22" />
          </g>
        </g>
      </defs>
      <text
         x="24.099901"
         y="-70.407661"
         transform="rotate(-90)"
         style="font-style:normal;font-variant:normal;font-weight:normal;font-stretch:normal;font-size:4.51595px;font-family:NewComputerModern10;-inkscape-font-specification:'NewComputerModern10, Normal';font-variant-ligatures:normal;font-variant-caps:normal;font-variant-numeric:normal;font-variant-east-asian:normal;fill:#000000;fill-opacity:1;stroke:none;stroke-width:0.419643px;stroke-linecap:butt;stroke-linejoin:miter;stroke-opacity:1"
         id="text2950"
         xml:space="preserve"><tspan
           sodipodi:role="line"
           id="tspan6"
           x="24.099901"
           y="-70.407661"
           style="font-style:normal;font-variant:normal;font-weight:normal;font-stretch:normal;font-size:4.51595px;font-family:NewComputerModern10;-inkscape-font-specification:'NewComputerModern10, Normal';font-variant-ligatures:normal;font-variant-caps:normal;font-variant-numeric:normal;font-variant-east-asian:normal;stroke-width:0.419643px">Stress</tspan></text>
    </g>
    <g
       transform="matrix(4.0809375,0,0,3.7974941,275.12199,458.82226)"
       ns1:version="1.10.2"
       ns1:texconverter="pdflatex"
       ns1:pdfconverter="inkscape"
       ns1:text="$\\epsilon$"
       ns1:preamble="/Users/jzkelter/Library/Application Support/org.inkscape.Inkscape/config/inkscape/extensions/textext/default_packages.tex"
       ns1:scale="1.0"
       ns1:alignment="middle center"
       ns1:stroke-to-path="0"
       id="g6623"
       ns1:jacobian_sqrt="1.33333"
       inkscape:label="x_label">
      <defs
         id="id-19427255-dad0-4191-a4f5-602418e5e932">
        <g
           id="id-cf8f6de7-0ecf-4d96-ba2f-e55037b8de64">
          <g
             id="id-0301c5fe-b4dc-463e-98ef-57829b22a5a0">
            <path
               d="m 2.96875,-2.25 c 0.15625,0 0.34375,0 0.34375,-0.171875 C 3.3125,-2.5625 3.1875,-2.5625 3.015625,-2.5625 H 1.40625 c 0.234375,-0.84375 0.796875,-1.421875 1.703125,-1.421875 h 0.3125 c 0.171875,0 0.328125,0 0.328125,-0.171875 0,-0.140625 -0.125,-0.140625 -0.296875,-0.140625 H 3.09375 c -1.296875,0 -2.625,1 -2.625,2.515625 0,1.109375 0.75,1.890625 1.796875,1.890625 0.65625,0 1.296875,-0.40625 1.296875,-0.515625 0,-0.015625 0,-0.125 -0.09375,-0.125 -0.015625,0 -0.046875,0 -0.125,0.046875 -0.3125,0.203125 -0.6875,0.375 -1.046875,0.375 -0.578125,0 -1.078125,-0.421875 -1.078125,-1.296875 0,-0.34375 0.078125,-0.734375 0.109375,-0.84375 z m 0,0"
               id="id-dbb30eff-6ed3-49cf-940e-632e54968784" />
          </g>
        </g>
      </defs>
      <text
         x="7.0556312"
         y="-2.7448332"
         style="font-style:normal;font-variant:normal;font-weight:normal;font-stretch:normal;font-size:4.51595px;font-family:NewComputerModern10;-inkscape-font-specification:'NewComputerModern10, Normal';font-variant-ligatures:normal;font-variant-caps:normal;font-variant-numeric:normal;font-variant-east-asian:normal;fill:#000000;fill-opacity:1;stroke:none;stroke-width:0.419643px;stroke-linecap:butt;stroke-linejoin:miter;stroke-opacity:1"
         id="text2946"
         xml:space="preserve"><tspan
           sodipodi:role="line"
           id="tspan5"
           x="7.0556312"
           y="-2.7448332"
           style="font-style:normal;font-variant:normal;font-weight:normal;font-stretch:normal;font-size:4.51595px;font-family:NewComputerModern10;-inkscape-font-specification:'NewComputerModern10, Normal';font-variant-ligatures:normal;font-variant-caps:normal;font-variant-numeric:normal;font-variant-east-asian:normal;stroke-width:0.419643px">Strain</tspan></text>
    </g>
    <g
       transform="matrix(2.2845388,0,0,2.1258651,97.528843,177.36922)"
       ns1:version="1.10.2"
       ns1:texconverter="pdflatex"
       ns1:pdfconverter="inkscape"
       ns1:text="$\\sigma_y$"
       ns1:preamble="/Users/jzkelter/Library/Application Support/org.inkscape.Inkscape/config/inkscape/extensions/textext/default_packages.tex"
       ns1:scale="1.0"
       ns1:alignment="middle center"
       ns1:stroke-to-path="0"
       id="g3928"
       ns1:jacobian_sqrt="1.33333">
      <defs
         id="id-9a3c67c6-7423-423d-8bf3-99e1ea67cf30">
        <g
           id="id-77375843-b3cf-4446-8ef9-2036fd09527c">
          <g
             id="id-9e856f37-2295-4e06-82e9-114a6dd9ab29">
            <path
               d="m 5.15625,-3.71875 c 0.140625,0 0.5,0 0.5,-0.34375 0,-0.234375 -0.21875,-0.234375 -0.390625,-0.234375 h -2.28125 c -1.5,0 -2.609375,1.640625 -2.609375,2.828125 0,0.875 0.59375,1.578125 1.5,1.578125 1.171875,0 2.5,-1.203125 2.5,-2.734375 0,-0.171875 0,-0.65625 -0.3125,-1.09375 z M 1.890625,-0.109375 C 1.390625,-0.109375 1,-0.46875 1,-1.1875 c 0,-0.296875 0.109375,-1.109375 0.46875,-1.703125 0.421875,-0.6875 1.015625,-0.828125 1.359375,-0.828125 0.828125,0 0.90625,0.65625 0.90625,0.96875 0,0.46875 -0.203125,1.28125 -0.53125,1.796875 -0.390625,0.578125 -0.9375,0.84375 -1.3125,0.84375 z m 0,0"
               id="id-9ef936e9-69ee-4772-9ed9-4992df4f8cd6" />
          </g>
          <g
             id="id-d1b42519-f46a-4b1f-bafd-725201f3900a">
            <path
               d="M 3.875,-2.625 C 3.90625,-2.71875 3.90625,-2.734375 3.90625,-2.78125 3.90625,-2.921875 3.796875,-3 3.671875,-3 3.59375,-3 3.46875,-2.96875 3.390625,-2.84375 3.359375,-2.796875 3.3125,-2.578125 3.28125,-2.4375 L 3.125,-1.859375 c -0.03125,0.171875 -0.25,1.046875 -0.28125,1.125 0,0 -0.3125,0.609375 -0.84375,0.609375 -0.484375,0 -0.484375,-0.453125 -0.484375,-0.578125 0,-0.375 0.15625,-0.8125 0.375,-1.359375 C 1.96875,-2.28125 2,-2.359375 2,-2.484375 2,-2.8125 1.71875,-3.078125 1.34375,-3.078125 0.640625,-3.078125 0.328125,-2.125 0.328125,-2 c 0,0.078125 0.09375,0.078125 0.125,0.078125 0.09375,0 0.09375,-0.03125 0.125,-0.109375 C 0.75,-2.609375 1.046875,-2.875 1.328125,-2.875 1.4375,-2.875 1.5,-2.796875 1.5,-2.640625 c 0,0.171875 -0.0625,0.3125 -0.09375,0.40625 C 1.0625,-1.375 1,-1.125 1,-0.8125 1,-0.703125 1,-0.375 1.265625,-0.140625 1.484375,0.03125 1.78125,0.0625 1.96875,0.0625 2.25,0.0625 2.5,-0.03125 2.71875,-0.25 2.640625,0.140625 2.5625,0.4375 2.265625,0.78125 2.078125,1 1.796875,1.21875 1.421875,1.21875 c -0.046875,0 -0.375,0 -0.515625,-0.21875 0.375,-0.046875 0.375,-0.375 0.375,-0.390625 0,-0.21875 -0.203125,-0.265625 -0.265625,-0.265625 -0.171875,0 -0.40625,0.140625 -0.40625,0.46875 0,0.34375 0.328125,0.609375 0.828125,0.609375 C 2.140625,1.421875 3,0.875 3.21875,0 Z m 0,0"
               id="id-b3db62f1-7a8b-4623-8e0f-b0c4eddc93a5" />
          </g>
        </g>
      </defs>
      <g
         fill="#000000"
         fill-opacity="1"
         id="id-9134b724-9c6d-4535-92de-3f38bd961710"
         transform="translate(-149.087,-130.468)">
        <g
           transform="translate(148.712,134.765)"
           id="g7798">
          <path
             d="m 5.15625,-3.71875 c 0.140625,0 0.5,0 0.5,-0.34375 0,-0.234375 -0.21875,-0.234375 -0.390625,-0.234375 h -2.28125 c -1.5,0 -2.609375,1.640625 -2.609375,2.828125 0,0.875 0.59375,1.578125 1.5,1.578125 1.171875,0 2.5,-1.203125 2.5,-2.734375 0,-0.171875 0,-0.65625 -0.3125,-1.09375 z M 1.890625,-0.109375 C 1.390625,-0.109375 1,-0.46875 1,-1.1875 c 0,-0.296875 0.109375,-1.109375 0.46875,-1.703125 0.421875,-0.6875 1.015625,-0.828125 1.359375,-0.828125 0.828125,0 0.90625,0.65625 0.90625,0.96875 0,0.46875 -0.203125,1.28125 -0.53125,1.796875 -0.390625,0.578125 -0.9375,0.84375 -1.3125,0.84375 z m 0,0"
             id="id-78e8c899-525b-4780-b312-d6322b6c1f66" />
        </g>
      </g>
      <g
         fill="#000000"
         fill-opacity="1"
         id="id-06b55397-0f3a-4bc5-a7e8-8dfc2a279e45"
         transform="translate(-149.087,-130.468)">
        <g
           transform="translate(154.405,136.259)"
           id="g446">
          <path
             d="M 3.875,-2.625 C 3.90625,-2.71875 3.90625,-2.734375 3.90625,-2.78125 3.90625,-2.921875 3.796875,-3 3.671875,-3 3.59375,-3 3.46875,-2.96875 3.390625,-2.84375 3.359375,-2.796875 3.3125,-2.578125 3.28125,-2.4375 L 3.125,-1.859375 c -0.03125,0.171875 -0.25,1.046875 -0.28125,1.125 0,0 -0.3125,0.609375 -0.84375,0.609375 -0.484375,0 -0.484375,-0.453125 -0.484375,-0.578125 0,-0.375 0.15625,-0.8125 0.375,-1.359375 C 1.96875,-2.28125 2,-2.359375 2,-2.484375 2,-2.8125 1.71875,-3.078125 1.34375,-3.078125 0.640625,-3.078125 0.328125,-2.125 0.328125,-2 c 0,0.078125 0.09375,0.078125 0.125,0.078125 0.09375,0 0.09375,-0.03125 0.125,-0.109375 C 0.75,-2.609375 1.046875,-2.875 1.328125,-2.875 1.4375,-2.875 1.5,-2.796875 1.5,-2.640625 c 0,0.171875 -0.0625,0.3125 -0.09375,0.40625 C 1.0625,-1.375 1,-1.125 1,-0.8125 1,-0.703125 1,-0.375 1.265625,-0.140625 1.484375,0.03125 1.78125,0.0625 1.96875,0.0625 2.25,0.0625 2.5,-0.03125 2.71875,-0.25 2.640625,0.140625 2.5625,0.4375 2.265625,0.78125 2.078125,1 1.796875,1.21875 1.421875,1.21875 c -0.046875,0 -0.375,0 -0.515625,-0.21875 0.375,-0.046875 0.375,-0.375 0.375,-0.390625 0,-0.21875 -0.203125,-0.265625 -0.265625,-0.265625 -0.171875,0 -0.40625,0.140625 -0.40625,0.46875 0,0.34375 0.328125,0.609375 0.828125,0.609375 C 2.140625,1.421875 3,0.875 3.21875,0 Z m 0,0"
             id="id-5516b747-f8cd-4910-b549-845932fc9694" />
        </g>
      </g>
    </g>
    <path
       style="fill:#5400c2;fill-opacity:0.151596;stroke:none;stroke-width:1.33333;stroke-dasharray:5.33334, 1.33333"
       d="M 122.41307,430.4355 227.56664,224.1727 c 8.34653,-13.48123 19.84371,-26.96245 36.80376,-40.44368 l 1.21332,245.89761 z"
       id="path2"
       sodipodi:nodetypes="ccccc" />
    <g
       transform="matrix(2.1258651,0,0,2.1258651,259.71985,435.9939)"
       ns1:version="1.10.2"
       ns1:texconverter="pdflatex"
       ns1:pdfconverter="inkscape"
       ns1:text="$\\epsilon_y$"
       ns1:preamble="/Users/jzkelter/Library/Application Support/org.inkscape.Inkscape/config/inkscape/extensions/textext/default_packages.tex"
       ns1:scale="1.0"
       ns1:alignment="middle center"
       ns1:stroke-to-path="0"
       ns1:inkscapeversion="1.3.2"
       id="g2543"
       ns1:jacobian_sqrt="1.33333"
       inkscape:label="eps_y">
      <defs
         id="id-885c6419-90bb-4be4-b414-65eae70ff072">
        <g
           id="id-9522fa79-d893-4093-97ed-09c8dcc3a617">
          <g
             id="id-c2a3a740-1f6d-4610-9291-c1bbdbc57c05">
            <path
               d="m 2.96875,-2.25 c 0.15625,0 0.34375,0 0.34375,-0.171875 C 3.3125,-2.5625 3.1875,-2.5625 3.015625,-2.5625 H 1.40625 c 0.234375,-0.84375 0.796875,-1.421875 1.703125,-1.421875 h 0.3125 c 0.171875,0 0.328125,0 0.328125,-0.171875 0,-0.140625 -0.125,-0.140625 -0.296875,-0.140625 H 3.09375 c -1.296875,0 -2.625,1 -2.625,2.515625 0,1.109375 0.75,1.890625 1.796875,1.890625 0.65625,0 1.296875,-0.40625 1.296875,-0.515625 0,-0.015625 0,-0.125 -0.09375,-0.125 -0.015625,0 -0.046875,0 -0.125,0.046875 -0.3125,0.203125 -0.6875,0.375 -1.046875,0.375 -0.578125,0 -1.078125,-0.421875 -1.078125,-1.296875 0,-0.34375 0.078125,-0.734375 0.109375,-0.84375 z m 0,0"
               id="id-5e608d23-a4c6-4fe4-a3ef-0cec5ba9f866" />
          </g>
          <g
             id="id-4c0224b2-b025-4eb1-af4c-38d549171e6e">
            <path
               d="M 3.875,-2.625 C 3.90625,-2.71875 3.90625,-2.734375 3.90625,-2.78125 3.90625,-2.921875 3.796875,-3 3.671875,-3 3.59375,-3 3.46875,-2.96875 3.390625,-2.84375 3.359375,-2.796875 3.3125,-2.578125 3.28125,-2.4375 L 3.125,-1.859375 c -0.03125,0.171875 -0.25,1.046875 -0.28125,1.125 0,0 -0.3125,0.609375 -0.84375,0.609375 -0.484375,0 -0.484375,-0.453125 -0.484375,-0.578125 0,-0.375 0.15625,-0.8125 0.375,-1.359375 C 1.96875,-2.28125 2,-2.359375 2,-2.484375 2,-2.8125 1.71875,-3.078125 1.34375,-3.078125 0.640625,-3.078125 0.328125,-2.125 0.328125,-2 c 0,0.078125 0.09375,0.078125 0.125,0.078125 0.09375,0 0.09375,-0.03125 0.125,-0.109375 C 0.75,-2.609375 1.046875,-2.875 1.328125,-2.875 1.4375,-2.875 1.5,-2.796875 1.5,-2.640625 c 0,0.171875 -0.0625,0.3125 -0.09375,0.40625 C 1.0625,-1.375 1,-1.125 1,-0.8125 1,-0.703125 1,-0.375 1.265625,-0.140625 1.484375,0.03125 1.78125,0.0625 1.96875,0.0625 2.25,0.0625 2.5,-0.03125 2.71875,-0.25 2.640625,0.140625 2.5625,0.4375 2.265625,0.78125 2.078125,1 1.796875,1.21875 1.421875,1.21875 c -0.046875,0 -0.375,0 -0.515625,-0.21875 0.375,-0.046875 0.375,-0.375 0.375,-0.390625 0,-0.21875 -0.203125,-0.265625 -0.265625,-0.265625 -0.171875,0 -0.40625,0.140625 -0.40625,0.46875 0,0.34375 0.328125,0.609375 0.828125,0.609375 C 2.140625,1.421875 3,0.875 3.21875,0 Z m 0,0"
               id="id-a9e5bfdd-2f39-40e4-b4c8-81c0f776e31c" />
          </g>
        </g>
      </defs>
      <g
         fill="#000000"
         fill-opacity="1"
         id="id-319924a4-eb3e-4f46-adb5-3a6b49704536"
         transform="translate(-149.181,-130.468)">
        <g
           transform="translate(148.712,134.765)"
           id="g4977">
          <path
             d="m 2.96875,-2.25 c 0.15625,0 0.34375,0 0.34375,-0.171875 C 3.3125,-2.5625 3.1875,-2.5625 3.015625,-2.5625 H 1.40625 c 0.234375,-0.84375 0.796875,-1.421875 1.703125,-1.421875 h 0.3125 c 0.171875,0 0.328125,0 0.328125,-0.171875 0,-0.140625 -0.125,-0.140625 -0.296875,-0.140625 H 3.09375 c -1.296875,0 -2.625,1 -2.625,2.515625 0,1.109375 0.75,1.890625 1.796875,1.890625 0.65625,0 1.296875,-0.40625 1.296875,-0.515625 0,-0.015625 0,-0.125 -0.09375,-0.125 -0.015625,0 -0.046875,0 -0.125,0.046875 -0.3125,0.203125 -0.6875,0.375 -1.046875,0.375 -0.578125,0 -1.078125,-0.421875 -1.078125,-1.296875 0,-0.34375 0.078125,-0.734375 0.109375,-0.84375 z m 0,0"
             id="id-d76f65c0-e69a-4bdb-b00e-4ba96b9aefc6" />
        </g>
      </g>
      <g
         fill="#000000"
         fill-opacity="1"
         id="id-56a00342-627c-487b-bb1f-aef21420b24c"
         transform="translate(-149.181,-130.468)">
        <g
           transform="translate(152.756,136.259)"
           id="g5622">
          <path
             d="M 3.875,-2.625 C 3.90625,-2.71875 3.90625,-2.734375 3.90625,-2.78125 3.90625,-2.921875 3.796875,-3 3.671875,-3 3.59375,-3 3.46875,-2.96875 3.390625,-2.84375 3.359375,-2.796875 3.3125,-2.578125 3.28125,-2.4375 L 3.125,-1.859375 c -0.03125,0.171875 -0.25,1.046875 -0.28125,1.125 0,0 -0.3125,0.609375 -0.84375,0.609375 -0.484375,0 -0.484375,-0.453125 -0.484375,-0.578125 0,-0.375 0.15625,-0.8125 0.375,-1.359375 C 1.96875,-2.28125 2,-2.359375 2,-2.484375 2,-2.8125 1.71875,-3.078125 1.34375,-3.078125 0.640625,-3.078125 0.328125,-2.125 0.328125,-2 c 0,0.078125 0.09375,0.078125 0.125,0.078125 0.09375,0 0.09375,-0.03125 0.125,-0.109375 C 0.75,-2.609375 1.046875,-2.875 1.328125,-2.875 1.4375,-2.875 1.5,-2.796875 1.5,-2.640625 c 0,0.171875 -0.0625,0.3125 -0.09375,0.40625 C 1.0625,-1.375 1,-1.125 1,-0.8125 1,-0.703125 1,-0.375 1.265625,-0.140625 1.484375,0.03125 1.78125,0.0625 1.96875,0.0625 2.25,0.0625 2.5,-0.03125 2.71875,-0.25 2.640625,0.140625 2.5625,0.4375 2.265625,0.78125 2.078125,1 1.796875,1.21875 1.421875,1.21875 c -0.046875,0 -0.375,0 -0.515625,-0.21875 0.375,-0.046875 0.375,-0.375 0.375,-0.390625 0,-0.21875 -0.203125,-0.265625 -0.265625,-0.265625 -0.171875,0 -0.40625,0.140625 -0.40625,0.46875 0,0.34375 0.328125,0.609375 0.828125,0.609375 C 2.140625,1.421875 3,0.875 3.21875,0 Z m 0,0"
             id="id-08d22f1f-3161-4fa4-a5d2-6926186d7a40" />
        </g>
      </g>
    </g>
  </g>
</svg>
