<?xml version="1.0" encoding="UTF-8" standalone="no"?>
<!-- Created with Inkscape (http://www.inkscape.org/) -->

<svg
   version="1.0"
   width="700"
   height="525.28619"
   id="svg2"
   sodipodi:docname="stress_strain_curve.svg"
   inkscape:version="1.3.2 (091e20e, 2023-11-25)"
   xmlns:inkscape="http://www.inkscape.org/namespaces/inkscape"
   xmlns:sodipodi="http://sodipodi.sourceforge.net/DTD/sodipodi-0.dtd"
   xmlns="http://www.w3.org/2000/svg"
   xmlns:svg="http://www.w3.org/2000/svg"
   xmlns:ns1="http://www.iki.fi/pav/software/textext/">
  <sodipodi:namedview
     id="namedview1"
     pagecolor="#ffffff"
     bordercolor="#000000"
     borderopacity="0.25"
     inkscape:showpageshadow="2"
     inkscape:pageopacity="0.0"
     inkscape:pagecheckerboard="0"
     inkscape:deskcolor="#d1d1d1"
     inkscape:zoom="1.1819487"
     inkscape:cx="343.92355"
     inkscape:cy="261.00963"
     inkscape:window-width="1392"
     inkscape:window-height="1212"
     inkscape:window-x="249"
     inkscape:window-y="230"
     inkscape:window-maximized="0"
     inkscape:current-layer="layer1" />
  <defs
     id="defs4">
    <marker
       style="overflow:visible"
       id="ArrowWide"
       refX="0"
       refY="0"
       orient="auto-start-reverse"
       inkscape:stockid="Wide arrow"
       markerWidth="1"
       markerHeight="1"
       viewBox="0 0 1 1"
       inkscape:isstock="true"
       inkscape:collect="always"
       preserveAspectRatio="xMidYMid">
      <path
         style="fill:none;stroke:context-stroke;stroke-width:1;stroke-linecap:butt"
         d="M 3,-3 0,0 3,3"
         transform="rotate(180,0.125,0)"
         sodipodi:nodetypes="ccc"
         id="path3" />
    </marker>
    <marker
       refX="0"
       refY="0"
       orient="auto"
       style="overflow:visible"
       id="Arrow2Mend">
      <path
         d="M 8.7185878,4.0337352 -2.2072895,0.01601326 8.7185884,-4.0017078 c -1.7454984,2.3720609 -1.7354408,5.6174519 -6e-7,8.035443 z"
         transform="scale(-0.6)"
         style="font-size:12px;fill-rule:evenodd;stroke-width:0.625;stroke-linejoin:round"
         id="path2906" />
    </marker>
    <marker
       refX="0"
       refY="0"
       orient="auto"
       style="overflow:visible"
       id="Arrow2Mstart">
      <path
         d="M 8.7185878,4.0337352 -2.2072895,0.01601326 8.7185884,-4.0017078 c -1.7454984,2.3720609 -1.7354408,5.6174519 -6e-7,8.035443 z"
         transform="scale(0.6)"
         style="font-size:12px;fill-rule:evenodd;stroke-width:0.625;stroke-linejoin:round"
         id="path2909" />
    </marker>
    <marker
       refX="0"
       refY="0"
       orient="auto"
       style="overflow:visible"
       id="Arrow2Lstart">
      <path
         d="M 8.7185878,4.0337352 -2.2072895,0.01601326 8.7185884,-4.0017078 c -1.7454984,2.3720609 -1.7354408,5.6174519 -6e-7,8.035443 z"
         transform="matrix(1.1,0,0,1.1,1.1,0)"
         style="font-size:12px;fill-rule:evenodd;stroke-width:0.625;stroke-linejoin:round"
         id="path2915" />
    </marker>
    <marker
       refX="0"
       refY="0"
       orient="auto"
       style="overflow:visible"
       id="Arrow2Lend">
      <path
         d="M 8.7185878,4.0337352 -2.2072895,0.01601326 8.7185884,-4.0017078 c -1.7454984,2.3720609 -1.7354408,5.6174519 -6e-7,8.035443 z"
         transform="matrix(-1.1,0,0,-1.1,-1.1,0)"
         style="font-size:12px;fill-rule:evenodd;stroke-width:0.625;stroke-linejoin:round"
         id="path2912" />
    </marker>
    <marker
       refX="0"
       refY="0"
       orient="auto"
       style="overflow:visible"
       id="Arrow1Lend">
      <path
         d="M 0,0 5,-5 -12.5,0 5,5 Z"
         transform="matrix(-0.8,0,0,-0.8,-10,0)"
         style="fill-rule:evenodd;stroke:#000000;stroke-width:1pt;marker-start:none"
         id="path2930" />
    </marker>
    <marker
       refX="0"
       refY="0"
       orient="auto"
       style="overflow:visible"
       id="Arrow1Lstart">
      <path
         d="M 0,0 5,-5 -12.5,0 5,5 Z"
         transform="matrix(0.8,0,0,0.8,10,0)"
         style="fill-rule:evenodd;stroke:#000000;stroke-width:1pt;marker-start:none"
         id="path2933" />
    </marker>
    <marker
       refX="0"
       refY="0"
       orient="auto"
       style="overflow:visible"
       id="Arrow1Mend">
      <path
         d="M 0,0 5,-5 -12.5,0 5,5 Z"
         transform="matrix(-0.4,0,0,-0.4,-4,0)"
         style="fill-rule:evenodd;stroke:#000000;stroke-width:1pt;marker-start:none"
         id="path2924" />
    </marker>
    <marker
       refX="0"
       refY="0"
       orient="auto"
       style="overflow:visible"
       id="Arrow1Mstart">
      <path
         d="M 0,0 5,-5 -12.5,0 5,5 Z"
         transform="matrix(0.4,0,0,0.4,4,0)"
         style="fill-rule:evenodd;stroke:#000000;stroke-width:1pt;marker-start:none"
         id="path2927" />
    </marker>
    <marker
       style="overflow:visible"
       id="ArrowWide-8"
       refX="0"
       refY="0"
       orient="auto-start-reverse"
       inkscape:stockid="Wide arrow"
       markerWidth="1"
       markerHeight="1"
       viewBox="0 0 1 1"
       inkscape:isstock="true"
       inkscape:collect="always"
       preserveAspectRatio="xMidYMid">
      <path
         style="fill:none;stroke:context-stroke;stroke-width:1;stroke-linecap:butt"
         d="M 3,-3 0,0 3,3"
         transform="rotate(180,0.125,0)"
         sodipodi:nodetypes="ccc"
         id="path3-5" />
    </marker>
  </defs>
  <g
     transform="translate(-94.3869, -79.9844)"
     id="layer1">
    <path
       d="M 142.00656,109.86044 V 562.11601 H 762.77194"
       style="fill:none;fill-rule:evenodd;stroke:#000000;stroke-width:3.78011;stroke-linecap:butt;stroke-linejoin:miter;stroke-miterlimit:4;stroke-dasharray:none;stroke-opacity:1;marker-start:;marker-mid:none"
       id="path1872" />
    <text
       x="181.42511"
       y="581.29303"
       style="font-style:normal;font-variant:normal;font-weight:normal;font-stretch:normal;font-size:16.3541px;font-family:NewComputerModern10;-inkscape-font-specification:'NewComputerModern10, Normal';font-variant-ligatures:normal;font-variant-caps:normal;font-variant-numeric:normal;font-variant-east-asian:normal;fill:#000000;fill-opacity:1;stroke:none;stroke-width:2.04426px;stroke-linecap:butt;stroke-linejoin:miter;stroke-opacity:1"
       id="text2946-3"
       xml:space="preserve"><tspan
         sodipodi:role="line"
         id="tspan4"
         x="181.42511"
         y="581.29303"
         style="stroke-width:2.04426px">0.002</tspan></text>
    <path
       d="M 142.41346,559.73565 261.16459,308.85111 c 0,0 27.55968,-68.68308 136.77984,-120.67285 55.7423,-26.53381 99.54406,-30.36756 164.15472,-27.16037 84.59031,4.1474 149.4463,89.11537 149.4463,89.11537"
       style="fill:none;fill-opacity:1;fill-rule:evenodd;stroke:#5400c2;stroke-width:3.19333;stroke-linecap:butt;stroke-linejoin:miter;stroke-miterlimit:4;stroke-dasharray:none;stroke-opacity:1"
       id="path2958" />
    <path
       d="M 314.22376,241.1851 160.54482,563.38909"
       style="fill:none;fill-rule:evenodd;stroke:#000000;stroke-width:2;stroke-linecap:butt;stroke-linejoin:miter;stroke-miterlimit:4;stroke-dasharray:8.00001029,2;stroke-dashoffset:0;stroke-opacity:1"
       id="path2960"
       inkscape:label="2% strain offset" />
    <path
       style="fill:none;stroke:#000000;stroke-width:2;stroke-dasharray:8.00000933,2;stroke-dashoffset:0;stroke-opacity:1"
       d="m 143.21809,245.18505 c 54.29362,0 108.5872,0 162.88079,0"
       id="path1"
       inkscape:label="yield stress" />
    <path
       style="fill:none;stroke:#000000;stroke-width:2;stroke-dasharray:8,2;stroke-dashoffset:0;stroke-opacity:1"
       d="m 309.74972,252.36606 c 0,103.61129 0,207.22251 0,310.83374"
       id="path1-9"
       inkscape:label="yield stress" />
    <path
       style="fill:none;stroke:#000000;stroke-width:1.22656;stroke-dasharray:none;stroke-dashoffset:0;stroke-opacity:1"
       d="m 141.84263,586.18112 c 0,-6.67056 0,-13.34118 0,-20.01174"
       id="path1-1"
       inkscape:label="yield stress" />
    <path
       style="fill:none;stroke:#000000;stroke-width:1.22656;stroke-dasharray:none;stroke-dashoffset:0;stroke-opacity:1"
       d="m 162.00171,585.75024 c 0,-6.67056 0,-13.34118 0,-20.01174"
       id="path1-1-4"
       inkscape:label="yield stress" />
    <path
       style="fill:none;stroke:#000000;stroke-width:0.95578;stroke-dasharray:none;stroke-dashoffset:0;stroke-opacity:1;marker-start:url(#ArrowWide)"
       d="m 138.73073,575.99775 c -4.05042,0 -8.10091,0 -12.15135,0"
       id="path1-1-4-4"
       inkscape:label="yield stress" />
    <path
       style="fill:none;stroke:#000000;stroke-width:0.95578;stroke-dasharray:none;stroke-dashoffset:0;stroke-opacity:1;marker-start:url(#ArrowWide-8)"
       d="m 165.88757,575.99775 c 4.05044,0 8.10091,0 12.15137,0"
       id="path1-1-4-4-5"
       inkscape:label="yield stress" />
    <path
       d="m 316.97993,246.63701 a 6.13279,6.13279 0 1 1 -12.26558,0 6.13279,6.13279 0 1 1 12.26558,0 z"
       style="fill:#000000;fill-opacity:1;stroke:none;stroke-width:1.47386;stroke-linejoin:round;stroke-miterlimit:4;stroke-dasharray:5.89543, 1.47386;stroke-dashoffset:0;stroke-opacity:1"
       id="path5621" />
    <path
       d="m 273.83911,294.66778 a 6.1327844,6.1327844 0 1 1 -12.26556,0 6.1327844,6.1327844 0 1 1 12.26556,0 z"
       style="fill:#000000;fill-opacity:1;stroke:none;stroke-width:1.47386;stroke-linejoin:round;stroke-miterlimit:4;stroke-dasharray:5.89543, 1.47386;stroke-dashoffset:0;stroke-opacity:1"
       id="path5621-7" />
    <path
       d="m 526.6748,160.47523 a 6.13279,6.13279 0 1 1 -12.26558,0 6.13279,6.13279 0 1 1 12.26558,0 z"
       style="fill:#000000;fill-opacity:1;stroke:none;stroke-width:1.47386;stroke-linejoin:round;stroke-miterlimit:4;stroke-dasharray:5.89543, 1.47386;stroke-dashoffset:0;stroke-opacity:1"
       id="path6512" />
    <text
       x="386.31348"
       y="140.78987"
       style="font-style:normal;font-variant:normal;font-weight:normal;font-stretch:normal;font-size:21.8055px;font-family:NewComputerModern10;-inkscape-font-specification:'NewComputerModern10, Normal';font-variant-ligatures:normal;font-variant-caps:normal;font-variant-numeric:normal;font-variant-east-asian:normal;fill:#000000;fill-opacity:1;stroke:none;stroke-width:2.04426px;stroke-linecap:butt;stroke-linejoin:miter;stroke-opacity:1"
       id="text6514"
       xml:space="preserve"><tspan
         sodipodi:role="line"
         id="tspan1"
         x="386.31348"
         y="140.78987"
         style="stroke-width:2.04426px">(Ultimate) Tensile Strength </tspan></text>
    <path
       d="m 717.62025,251.82747 a 6.1327844,6.1327844 0 1 1 -12.26556,0 6.1327844,6.1327844 0 1 1 12.26556,0 z"
       style="fill:#000000;fill-opacity:1;stroke:none;stroke-width:1.47386;stroke-linejoin:round;stroke-miterlimit:4;stroke-dasharray:5.89543, 1.47386;stroke-dashoffset:0;stroke-opacity:1"
       id="path6518" />
    <text
       x="618.34253"
       y="281.63577"
       style="font-style:normal;font-variant:normal;font-weight:normal;font-stretch:normal;font-size:21.8055px;font-family:NewComputerModern10;-inkscape-font-specification:'NewComputerModern10, Normal';font-variant-ligatures:normal;font-variant-caps:normal;font-variant-numeric:normal;font-variant-east-asian:normal;fill:#000000;fill-opacity:1;stroke:none;stroke-width:2.04426px;stroke-linecap:butt;stroke-linejoin:miter;stroke-opacity:1"
       id="text6520"
       xml:space="preserve"><tspan
         sodipodi:role="line"
         id="tspan2"
         x="618.34253"
         y="281.63577"
         style="stroke-width:2.04426px">Fracture Stress</tspan></text>
    <text
       x="156.21872"
       y="236.30986"
       style="font-style:normal;font-variant:normal;font-weight:normal;font-stretch:normal;font-size:21.8055px;font-family:NewComputerModern10;-inkscape-font-specification:'NewComputerModern10, Normal';font-variant-ligatures:normal;font-variant-caps:normal;font-variant-numeric:normal;font-variant-east-asian:normal;fill:#000000;fill-opacity:1;stroke:none;stroke-width:2.04426px;stroke-linecap:butt;stroke-linejoin:miter;stroke-opacity:1"
       id="text6534"
       xml:space="preserve"><tspan
         x="156.21872"
         y="236.30986"
         id="tspan6536"
         style="font-style:normal;font-variant:normal;font-weight:normal;font-stretch:normal;font-size:21.8055px;font-family:NewComputerModern10;-inkscape-font-specification:'NewComputerModern10, Normal';font-variant-ligatures:normal;font-variant-caps:normal;font-variant-numeric:normal;font-variant-east-asian:normal;stroke-width:2.04426px">Yield stress</tspan></text>
    <text
       x="242.62617"
       y="297.83942"
       style="font-style:normal;font-variant:normal;font-weight:normal;font-stretch:normal;font-size:21.8055px;font-family:NewComputerModern10;-inkscape-font-specification:'NewComputerModern10, Normal';font-variant-ligatures:normal;font-variant-caps:normal;font-variant-numeric:normal;font-variant-east-asian:normal;fill:#000000;fill-opacity:1;stroke:none;stroke-width:2.04426px;stroke-linecap:butt;stroke-linejoin:miter;stroke-opacity:1"
       id="text6534-5"
       xml:space="preserve"><tspan
         sodipodi:role="line"
         id="tspan3"
         x="242.62617"
         y="297.83942"
         style="stroke-width:2.04426px">P</tspan></text>
    <g
       transform="matrix(4.8714315,0,0,4.8714315,472.80071,520.53439)"
       ns1:version="1.10.2"
       ns1:texconverter="pdflatex"
       ns1:pdfconverter="inkscape"
       ns1:text="$\\sigma$"
       ns1:preamble="/Users/jzkelter/Library/Application Support/org.inkscape.Inkscape/config/inkscape/extensions/textext/default_packages.tex"
       ns1:scale="1.0"
       ns1:alignment="middle center"
       ns1:stroke-to-path="0"
       id="g26"
       ns1:jacobian_sqrt="1.33333"
       inkscape:label="y_label">
      <defs
         id="id-7982384a-64d6-4bce-b0b1-65a539c605b1">
        <g
           id="id-c748d3f7-e18a-4e62-8a35-48e35f7500b7">
          <g
             id="id-9f41198b-33f4-4f3d-844f-27f4196416e0">
            <path
               d="m 5.15625,-3.71875 c 0.140625,0 0.5,0 0.5,-0.34375 0,-0.234375 -0.21875,-0.234375 -0.390625,-0.234375 h -2.28125 c -1.5,0 -2.609375,1.640625 -2.609375,2.828125 0,0.875 0.59375,1.578125 1.5,1.578125 1.171875,0 2.5,-1.203125 2.5,-2.734375 0,-0.171875 0,-0.65625 -0.3125,-1.09375 z M 1.890625,-0.109375 C 1.390625,-0.109375 1,-0.46875 1,-1.1875 c 0,-0.296875 0.109375,-1.109375 0.46875,-1.703125 0.421875,-0.6875 1.015625,-0.828125 1.359375,-0.828125 0.828125,0 0.90625,0.65625 0.90625,0.96875 0,0.46875 -0.203125,1.28125 -0.53125,1.796875 -0.390625,0.578125 -0.9375,0.84375 -1.3125,0.84375 z m 0,0"
               id="id-e1c7c11e-f676-41aa-92c6-5041c5c10a22" />
          </g>
        </g>
      </defs>
      <path
         d="m -69.740633,-23.117647 c 0.140625,0 0.5,0 0.5,-0.34375 0,-0.234375 -0.21875,-0.234375 -0.390625,-0.234375 h -2.28125 c -1.5,0 -2.609375,1.640625 -2.609375,2.828125 0,0.875 0.59375,1.578125 1.5,1.578125 1.171875,0 2.5,-1.203125 2.5,-2.734375 0,-0.171875 0,-0.65625 -0.3125,-1.09375 z m -3.265625,3.609375 c -0.5,0 -0.890625,-0.359375 -0.890625,-1.078125 0,-0.296875 0.109375,-1.109375 0.46875,-1.703125 0.421875,-0.6875 1.015625,-0.828125 1.359375,-0.828125 0.828125,0 0.90625,0.65625 0.90625,0.96875 0,0.46875 -0.203125,1.28125 -0.53125,1.796875 -0.390625,0.578125 -0.9375,0.84375 -1.3125,0.84375 z m 0,0"
         id="id-9d42dd4f-51ab-4dd7-afd5-a4c738cfd46d"
         inkscape:label="sigma" />
      <text
         x="-274.6944"
         y="106.67351"
         transform="matrix(0,-0.41964286,0.41964286,0,-115.30713,-141.11039)"
         style="font-style:normal;font-variant:normal;font-weight:normal;font-stretch:normal;font-size:12.692px;font-family:NewComputerModern10;-inkscape-font-specification:'NewComputerModern10, Normal';font-variant-ligatures:normal;font-variant-caps:normal;font-variant-numeric:normal;font-variant-east-asian:normal;fill:#000000;fill-opacity:1;stroke:none;stroke-width:1px;stroke-linecap:butt;stroke-linejoin:miter;stroke-opacity:1"
         id="text2950"
         xml:space="preserve"><tspan
           sodipodi:role="line"
           id="tspan6"
           x="-274.6944"
           y="106.67351">Stress</tspan></text>
    </g>
    <g
       transform="matrix(4.8714315,0,0,4.8714315,414.66408,573.4948)"
       ns1:version="1.10.2"
       ns1:texconverter="pdflatex"
       ns1:pdfconverter="inkscape"
       ns1:text="$\\epsilon$"
       ns1:preamble="/Users/jzkelter/Library/Application Support/org.inkscape.Inkscape/config/inkscape/extensions/textext/default_packages.tex"
       ns1:scale="1.0"
       ns1:alignment="middle center"
       ns1:stroke-to-path="0"
       id="g6623"
       ns1:jacobian_sqrt="1.33333"
       inkscape:label="x_label">
      <defs
         id="id-19427255-dad0-4191-a4f5-602418e5e932">
        <g
           id="id-cf8f6de7-0ecf-4d96-ba2f-e55037b8de64">
          <g
             id="id-0301c5fe-b4dc-463e-98ef-57829b22a5a0">
            <path
               d="m 2.96875,-2.25 c 0.15625,0 0.34375,0 0.34375,-0.171875 C 3.3125,-2.5625 3.1875,-2.5625 3.015625,-2.5625 H 1.40625 c 0.234375,-0.84375 0.796875,-1.421875 1.703125,-1.421875 h 0.3125 c 0.171875,0 0.328125,0 0.328125,-0.171875 0,-0.140625 -0.125,-0.140625 -0.296875,-0.140625 H 3.09375 c -1.296875,0 -2.625,1 -2.625,2.515625 0,1.109375 0.75,1.890625 1.796875,1.890625 0.65625,0 1.296875,-0.40625 1.296875,-0.515625 0,-0.015625 0,-0.125 -0.09375,-0.125 -0.015625,0 -0.046875,0 -0.125,0.046875 -0.3125,0.203125 -0.6875,0.375 -1.046875,0.375 -0.578125,0 -1.078125,-0.421875 -1.078125,-1.296875 0,-0.34375 0.078125,-0.734375 0.109375,-0.84375 z m 0,0"
               id="id-dbb30eff-6ed3-49cf-940e-632e54968784" />
          </g>
        </g>
      </defs>
      <path
         d="m 2.96875,-2.25 c 0.15625,0 0.34375,0 0.34375,-0.171875 C 3.3125,-2.5625 3.1875,-2.5625 3.015625,-2.5625 H 1.40625 c 0.234375,-0.84375 0.796875,-1.421875 1.703125,-1.421875 h 0.3125 c 0.171875,0 0.328125,0 0.328125,-0.171875 0,-0.140625 -0.125,-0.140625 -0.296875,-0.140625 H 3.09375 c -1.296875,0 -2.625,1 -2.625,2.515625 0,1.109375 0.75,1.890625 1.796875,1.890625 0.65625,0 1.296875,-0.40625 1.296875,-0.515625 0,-0.015625 0,-0.125 -0.09375,-0.125 -0.015625,0 -0.046875,0 -0.125,0.046875 -0.3125,0.203125 -0.6875,0.375 -1.046875,0.375 -0.578125,0 -1.078125,-0.421875 -1.078125,-1.296875 0,-0.34375 0.078125,-0.734375 0.109375,-0.84375 z m 0,0"
         id="id-98b29cf2-77cc-48cb-9904-7c0c314334e4"
         transform="translate(-0.46900002,4.2970007)"
         inkscape:label="eps" />
      <text
         x="216.20224"
         y="321.1507"
         style="font-style:normal;font-variant:normal;font-weight:normal;font-stretch:normal;font-size:12.692px;font-family:NewComputerModern10;-inkscape-font-specification:'NewComputerModern10, Normal';font-variant-ligatures:normal;font-variant-caps:normal;font-variant-numeric:normal;font-variant-east-asian:normal;fill:#000000;fill-opacity:1;stroke:none;stroke-width:1px;stroke-linecap:butt;stroke-linejoin:miter;stroke-opacity:1"
         id="text2946"
         xml:space="preserve"
         transform="matrix(0.41964286,0,0,0.41964286,-84.749633,-130.99988)"><tspan
           sodipodi:role="line"
           id="tspan5"
           x="216.20224"
           y="321.1507">Strain</tspan></text>
    </g>
    <g
       transform="matrix(2.7256752,0,0,2.7256752,111.52972,236.75877)"
       ns1:version="1.10.2"
       ns1:texconverter="pdflatex"
       ns1:pdfconverter="inkscape"
       ns1:text="$\\sigma_y$"
       ns1:preamble="/Users/jzkelter/Library/Application Support/org.inkscape.Inkscape/config/inkscape/extensions/textext/default_packages.tex"
       ns1:scale="1.0"
       ns1:alignment="middle center"
       ns1:stroke-to-path="0"
       id="g3928"
       ns1:jacobian_sqrt="1.33333">
      <defs
         id="id-9a3c67c6-7423-423d-8bf3-99e1ea67cf30">
        <g
           id="id-77375843-b3cf-4446-8ef9-2036fd09527c">
          <g
             id="id-9e856f37-2295-4e06-82e9-114a6dd9ab29">
            <path
               d="m 5.15625,-3.71875 c 0.140625,0 0.5,0 0.5,-0.34375 0,-0.234375 -0.21875,-0.234375 -0.390625,-0.234375 h -2.28125 c -1.5,0 -2.609375,1.640625 -2.609375,2.828125 0,0.875 0.59375,1.578125 1.5,1.578125 1.171875,0 2.5,-1.203125 2.5,-2.734375 0,-0.171875 0,-0.65625 -0.3125,-1.09375 z M 1.890625,-0.109375 C 1.390625,-0.109375 1,-0.46875 1,-1.1875 c 0,-0.296875 0.109375,-1.109375 0.46875,-1.703125 0.421875,-0.6875 1.015625,-0.828125 1.359375,-0.828125 0.828125,0 0.90625,0.65625 0.90625,0.96875 0,0.46875 -0.203125,1.28125 -0.53125,1.796875 -0.390625,0.578125 -0.9375,0.84375 -1.3125,0.84375 z m 0,0"
               id="id-9ef936e9-69ee-4772-9ed9-4992df4f8cd6" />
          </g>
          <g
             id="id-d1b42519-f46a-4b1f-bafd-725201f3900a">
            <path
               d="M 3.875,-2.625 C 3.90625,-2.71875 3.90625,-2.734375 3.90625,-2.78125 3.90625,-2.921875 3.796875,-3 3.671875,-3 3.59375,-3 3.46875,-2.96875 3.390625,-2.84375 3.359375,-2.796875 3.3125,-2.578125 3.28125,-2.4375 L 3.125,-1.859375 c -0.03125,0.171875 -0.25,1.046875 -0.28125,1.125 0,0 -0.3125,0.609375 -0.84375,0.609375 -0.484375,0 -0.484375,-0.453125 -0.484375,-0.578125 0,-0.375 0.15625,-0.8125 0.375,-1.359375 C 1.96875,-2.28125 2,-2.359375 2,-2.484375 2,-2.8125 1.71875,-3.078125 1.34375,-3.078125 0.640625,-3.078125 0.328125,-2.125 0.328125,-2 c 0,0.078125 0.09375,0.078125 0.125,0.078125 0.09375,0 0.09375,-0.03125 0.125,-0.109375 C 0.75,-2.609375 1.046875,-2.875 1.328125,-2.875 1.4375,-2.875 1.5,-2.796875 1.5,-2.640625 c 0,0.171875 -0.0625,0.3125 -0.09375,0.40625 C 1.0625,-1.375 1,-1.125 1,-0.8125 1,-0.703125 1,-0.375 1.265625,-0.140625 1.484375,0.03125 1.78125,0.0625 1.96875,0.0625 2.25,0.0625 2.5,-0.03125 2.71875,-0.25 2.640625,0.140625 2.5625,0.4375 2.265625,0.78125 2.078125,1 1.796875,1.21875 1.421875,1.21875 c -0.046875,0 -0.375,0 -0.515625,-0.21875 0.375,-0.046875 0.375,-0.375 0.375,-0.390625 0,-0.21875 -0.203125,-0.265625 -0.265625,-0.265625 -0.171875,0 -0.40625,0.140625 -0.40625,0.46875 0,0.34375 0.328125,0.609375 0.828125,0.609375 C 2.140625,1.421875 3,0.875 3.21875,0 Z m 0,0"
               id="id-b3db62f1-7a8b-4623-8e0f-b0c4eddc93a5" />
          </g>
        </g>
      </defs>
      <g
         fill="#000000"
         fill-opacity="1"
         id="id-9134b724-9c6d-4535-92de-3f38bd961710"
         transform="translate(-149.087,-130.468)">
        <g
           transform="translate(148.712,134.765)"
           id="g7798">
          <path
             d="m 5.15625,-3.71875 c 0.140625,0 0.5,0 0.5,-0.34375 0,-0.234375 -0.21875,-0.234375 -0.390625,-0.234375 h -2.28125 c -1.5,0 -2.609375,1.640625 -2.609375,2.828125 0,0.875 0.59375,1.578125 1.5,1.578125 1.171875,0 2.5,-1.203125 2.5,-2.734375 0,-0.171875 0,-0.65625 -0.3125,-1.09375 z M 1.890625,-0.109375 C 1.390625,-0.109375 1,-0.46875 1,-1.1875 c 0,-0.296875 0.109375,-1.109375 0.46875,-1.703125 0.421875,-0.6875 1.015625,-0.828125 1.359375,-0.828125 0.828125,0 0.90625,0.65625 0.90625,0.96875 0,0.46875 -0.203125,1.28125 -0.53125,1.796875 -0.390625,0.578125 -0.9375,0.84375 -1.3125,0.84375 z m 0,0"
             id="id-78e8c899-525b-4780-b312-d6322b6c1f66" />
        </g>
      </g>
      <g
         fill="#000000"
         fill-opacity="1"
         id="id-06b55397-0f3a-4bc5-a7e8-8dfc2a279e45"
         transform="translate(-149.087,-130.468)">
        <g
           transform="translate(154.405,136.259)"
           id="g446">
          <path
             d="M 3.875,-2.625 C 3.90625,-2.71875 3.90625,-2.734375 3.90625,-2.78125 3.90625,-2.921875 3.796875,-3 3.671875,-3 3.59375,-3 3.46875,-2.96875 3.390625,-2.84375 3.359375,-2.796875 3.3125,-2.578125 3.28125,-2.4375 L 3.125,-1.859375 c -0.03125,0.171875 -0.25,1.046875 -0.28125,1.125 0,0 -0.3125,0.609375 -0.84375,0.609375 -0.484375,0 -0.484375,-0.453125 -0.484375,-0.578125 0,-0.375 0.15625,-0.8125 0.375,-1.359375 C 1.96875,-2.28125 2,-2.359375 2,-2.484375 2,-2.8125 1.71875,-3.078125 1.34375,-3.078125 0.640625,-3.078125 0.328125,-2.125 0.328125,-2 c 0,0.078125 0.09375,0.078125 0.125,0.078125 0.09375,0 0.09375,-0.03125 0.125,-0.109375 C 0.75,-2.609375 1.046875,-2.875 1.328125,-2.875 1.4375,-2.875 1.5,-2.796875 1.5,-2.640625 c 0,0.171875 -0.0625,0.3125 -0.09375,0.40625 C 1.0625,-1.375 1,-1.125 1,-0.8125 1,-0.703125 1,-0.375 1.265625,-0.140625 1.484375,0.03125 1.78125,0.0625 1.96875,0.0625 2.25,0.0625 2.5,-0.03125 2.71875,-0.25 2.640625,0.140625 2.5625,0.4375 2.265625,0.78125 2.078125,1 1.796875,1.21875 1.421875,1.21875 c -0.046875,0 -0.375,0 -0.515625,-0.21875 0.375,-0.046875 0.375,-0.375 0.375,-0.390625 0,-0.21875 -0.203125,-0.265625 -0.265625,-0.265625 -0.171875,0 -0.40625,0.140625 -0.40625,0.46875 0,0.34375 0.328125,0.609375 0.828125,0.609375 C 2.140625,1.421875 3,0.875 3.21875,0 Z m 0,0"
             id="id-5516b747-f8cd-4910-b549-845932fc9694" />
        </g>
      </g>
    </g>
    <g
       transform="matrix(2.6342241,0,0,2.6342241,299.82391,566.97127)"
       ns1:version="1.10.2"
       ns1:texconverter="pdflatex"
       ns1:pdfconverter="inkscape"
       ns1:text="$\\epsilon_y$"
       ns1:preamble="/Users/jzkelter/Library/Application Support/org.inkscape.Inkscape/config/inkscape/extensions/textext/default_packages.tex"
       ns1:scale="1.0"
       ns1:alignment="middle center"
       ns1:stroke-to-path="0"
       ns1:inkscapeversion="1.3.2"
       id="g5926"
       ns1:jacobian_sqrt="1.33333">
      <defs
         id="id-2a1adc7d-9560-4823-829b-858ef1a33a86">
        <g
           id="id-1418fc5d-1602-469c-9a25-c6cafe3e4999">
          <g
             id="id-4fd1b4c1-56a2-4f71-8f74-19c4af6dd674">
            <path
               d="m 2.96875,-2.25 c 0.15625,0 0.34375,0 0.34375,-0.171875 C 3.3125,-2.5625 3.1875,-2.5625 3.015625,-2.5625 H 1.40625 c 0.234375,-0.84375 0.796875,-1.421875 1.703125,-1.421875 h 0.3125 c 0.171875,0 0.328125,0 0.328125,-0.171875 0,-0.140625 -0.125,-0.140625 -0.296875,-0.140625 H 3.09375 c -1.296875,0 -2.625,1 -2.625,2.515625 0,1.109375 0.75,1.890625 1.796875,1.890625 0.65625,0 1.296875,-0.40625 1.296875,-0.515625 0,-0.015625 0,-0.125 -0.09375,-0.125 -0.015625,0 -0.046875,0 -0.125,0.046875 -0.3125,0.203125 -0.6875,0.375 -1.046875,0.375 -0.578125,0 -1.078125,-0.421875 -1.078125,-1.296875 0,-0.34375 0.078125,-0.734375 0.109375,-0.84375 z m 0,0"
               id="id-45306c69-3f2a-42ef-b7d3-6be42be80e40" />
          </g>
          <g
             id="id-baecee5f-bb40-4d8d-afab-03b2c99ec651">
            <path
               d="M 3.875,-2.625 C 3.90625,-2.71875 3.90625,-2.734375 3.90625,-2.78125 3.90625,-2.921875 3.796875,-3 3.671875,-3 3.59375,-3 3.46875,-2.96875 3.390625,-2.84375 3.359375,-2.796875 3.3125,-2.578125 3.28125,-2.4375 L 3.125,-1.859375 c -0.03125,0.171875 -0.25,1.046875 -0.28125,1.125 0,0 -0.3125,0.609375 -0.84375,0.609375 -0.484375,0 -0.484375,-0.453125 -0.484375,-0.578125 0,-0.375 0.15625,-0.8125 0.375,-1.359375 C 1.96875,-2.28125 2,-2.359375 2,-2.484375 2,-2.8125 1.71875,-3.078125 1.34375,-3.078125 0.640625,-3.078125 0.328125,-2.125 0.328125,-2 c 0,0.078125 0.09375,0.078125 0.125,0.078125 0.09375,0 0.09375,-0.03125 0.125,-0.109375 C 0.75,-2.609375 1.046875,-2.875 1.328125,-2.875 1.4375,-2.875 1.5,-2.796875 1.5,-2.640625 c 0,0.171875 -0.0625,0.3125 -0.09375,0.40625 C 1.0625,-1.375 1,-1.125 1,-0.8125 1,-0.703125 1,-0.375 1.265625,-0.140625 1.484375,0.03125 1.78125,0.0625 1.96875,0.0625 2.25,0.0625 2.5,-0.03125 2.71875,-0.25 2.640625,0.140625 2.5625,0.4375 2.265625,0.78125 2.078125,1 1.796875,1.21875 1.421875,1.21875 c -0.046875,0 -0.375,0 -0.515625,-0.21875 0.375,-0.046875 0.375,-0.375 0.375,-0.390625 0,-0.21875 -0.203125,-0.265625 -0.265625,-0.265625 -0.171875,0 -0.40625,0.140625 -0.40625,0.46875 0,0.34375 0.328125,0.609375 0.828125,0.609375 C 2.140625,1.421875 3,0.875 3.21875,0 Z m 0,0"
               id="id-0871f456-ad65-4fef-ab75-6a3b551709d1" />
          </g>
        </g>
      </defs>
      <g
         fill="#000000"
         fill-opacity="1"
         id="id-f93bcd54-7866-4dfa-ad9a-e95f54e80267"
         transform="translate(-149.181,-130.468)">
        <g
           transform="translate(148.712,134.765)"
           id="g3587">
          <path
             d="m 2.96875,-2.25 c 0.15625,0 0.34375,0 0.34375,-0.171875 C 3.3125,-2.5625 3.1875,-2.5625 3.015625,-2.5625 H 1.40625 c 0.234375,-0.84375 0.796875,-1.421875 1.703125,-1.421875 h 0.3125 c 0.171875,0 0.328125,0 0.328125,-0.171875 0,-0.140625 -0.125,-0.140625 -0.296875,-0.140625 H 3.09375 c -1.296875,0 -2.625,1 -2.625,2.515625 0,1.109375 0.75,1.890625 1.796875,1.890625 0.65625,0 1.296875,-0.40625 1.296875,-0.515625 0,-0.015625 0,-0.125 -0.09375,-0.125 -0.015625,0 -0.046875,0 -0.125,0.046875 -0.3125,0.203125 -0.6875,0.375 -1.046875,0.375 -0.578125,0 -1.078125,-0.421875 -1.078125,-1.296875 0,-0.34375 0.078125,-0.734375 0.109375,-0.84375 z m 0,0"
             id="id-96e02555-7eac-4b51-ba3a-b768aed5d46e" />
        </g>
      </g>
      <g
         fill="#000000"
         fill-opacity="1"
         id="id-1781945a-19db-4604-adc6-9a36abdfeff8"
         transform="translate(-149.181,-130.468)">
        <g
           transform="translate(152.756,136.259)"
           id="g6136">
          <path
             d="M 3.875,-2.625 C 3.90625,-2.71875 3.90625,-2.734375 3.90625,-2.78125 3.90625,-2.921875 3.796875,-3 3.671875,-3 3.59375,-3 3.46875,-2.96875 3.390625,-2.84375 3.359375,-2.796875 3.3125,-2.578125 3.28125,-2.4375 L 3.125,-1.859375 c -0.03125,0.171875 -0.25,1.046875 -0.28125,1.125 0,0 -0.3125,0.609375 -0.84375,0.609375 -0.484375,0 -0.484375,-0.453125 -0.484375,-0.578125 0,-0.375 0.15625,-0.8125 0.375,-1.359375 C 1.96875,-2.28125 2,-2.359375 2,-2.484375 2,-2.8125 1.71875,-3.078125 1.34375,-3.078125 0.640625,-3.078125 0.328125,-2.125 0.328125,-2 c 0,0.078125 0.09375,0.078125 0.125,0.078125 0.09375,0 0.09375,-0.03125 0.125,-0.109375 C 0.75,-2.609375 1.046875,-2.875 1.328125,-2.875 1.4375,-2.875 1.5,-2.796875 1.5,-2.640625 c 0,0.171875 -0.0625,0.3125 -0.09375,0.40625 C 1.0625,-1.375 1,-1.125 1,-0.8125 1,-0.703125 1,-0.375 1.265625,-0.140625 1.484375,0.03125 1.78125,0.0625 1.96875,0.0625 2.25,0.0625 2.5,-0.03125 2.71875,-0.25 2.640625,0.140625 2.5625,0.4375 2.265625,0.78125 2.078125,1 1.796875,1.21875 1.421875,1.21875 c -0.046875,0 -0.375,0 -0.515625,-0.21875 0.375,-0.046875 0.375,-0.375 0.375,-0.390625 0,-0.21875 -0.203125,-0.265625 -0.265625,-0.265625 -0.171875,0 -0.40625,0.140625 -0.40625,0.46875 0,0.34375 0.328125,0.609375 0.828125,0.609375 C 2.140625,1.421875 3,0.875 3.21875,0 Z m 0,0"
             id="id-529319d1-4d54-4072-920e-3a967ff17c42" />
        </g>
      </g>
    </g>
  </g>
</svg>
